<svg width="32" height="32" viewBox="0 0 32 32" fill="none" xmlns="http://www.w3.org/2000/svg">
  <!-- Background circle -->
  <circle cx="16" cy="16" r="16" fill="#2563eb"/>
  
  <!-- Reversed D (flipped horizontally) -->
  <path d="M18 8v16h-3c-3.314 0-6-2.686-6-6s2.686-6 6-6h3zm-2 3h-1c-1.657 0-3 1.343-3 3s1.343 3 3 3h1v-6z" fill="white"/>
  
  <!-- B -->
  <path d="M20 8h4c1.657 0 3 1.343 3 3 0 .768-.289 1.47-.764 2 .475.53.764 1.232.764 2 0 1.657-1.343 3-3 3h-4V8zm2 3v2h2c.552 0 1-.448 1-1s-.448-1-1-1h-2zm0 5v2h2c.552 0 1-.448 1-1s-.448-1-1-1h-2z" fill="white"/>
</svg>
